<svg width="25" height="24" viewBox="0 0 25 24" fill="none" xmlns="http://www.w3.org/2000/svg">
<g clip-path="url(#clip0)">
<path d="M12.0885 0.00701904C5.41351 0.00701904 0.0945129 5.32602 0.0945129 12C0.0945129 18.674 5.41351 23.995 12.0875 23.995C18.7615 23.995 24.0815 18.676 24.0815 12.001C24.0815 5.32602 18.7635 0.00701904 12.0885 0.00701904ZM2.70151 12.105L11.9845 21.388C6.87351 21.388 2.70151 17.216 2.70151 12.105ZM14.1745 21.179L2.91051 9.91502C3.84751 5.74302 7.60351 2.61402 12.0875 2.61402C13.5701 2.61692 15.0314 2.96767 16.3538 3.63807C17.6762 4.30848 18.8228 5.27983 19.7015 6.47402L18.3465 7.62002C17.6399 6.58588 16.6903 5.74088 15.5812 5.15909C14.472 4.5773 13.237 4.27648 11.9845 4.28302C10.4006 4.27285 8.85364 4.76073 7.56216 5.6777C6.27069 6.59467 5.30007 7.89435 4.78751 9.39302L14.5915 19.198C16.9915 18.363 18.8675 16.278 19.3895 13.774H15.3215V12.001H21.4755C21.4755 16.486 18.3465 20.241 14.1745 21.179Z" fill="#663399"/>
</g>
<defs>
<clipPath id="clip0">
<rect x="0.0874939" width="24" height="24" fill="white"/>
</clipPath>
</defs>
</svg>
