<svg width="24" height="24" viewBox="0 0 24 24" fill="none" xmlns="http://www.w3.org/2000/svg">
<g clip-path="url(#clip0)">
<path d="M11.5438 10.6153C12.5068 10.6153 13.2875 9.8346 13.2875 8.87156C13.2875 7.90851 12.5068 7.12781 11.5438 7.12781C10.5808 7.12781 9.80005 7.90851 9.80005 8.87156C9.80005 9.8346 10.5808 10.6153 11.5438 10.6153Z" fill="#61DAFB"/>
<path d="M11.5438 15.284C12.9125 16.6153 14.2625 17.4028 15.35 17.4028C15.7063 17.4028 16.0438 17.3278 16.325 17.159C17.3 16.5965 17.6563 15.1903 17.3188 13.184C17.2625 12.8278 17.1875 12.4715 17.0938 12.0965C17.4688 11.984 17.8063 11.8715 18.1438 11.759C20.0375 11.0278 21.0875 10.0153 21.0875 8.90901C21.0875 7.78401 20.0375 6.77151 18.1438 6.05901C17.8063 5.92776 17.4688 5.81526 17.0938 5.72151C17.1875 5.34651 17.2625 4.99026 17.3188 4.63401C17.6375 2.59026 17.2813 1.16526 16.3063 0.602759C16.025 0.434009 15.6875 0.359009 15.3313 0.359009C14.2625 0.359009 12.8938 1.14651 11.525 2.47776C10.175 1.14651 8.825 0.359009 7.7375 0.359009C7.38125 0.359009 7.04375 0.434009 6.7625 0.602759C5.7875 1.16526 5.43125 2.57151 5.76875 4.57776C5.825 4.93401 5.9 5.29026 5.99375 5.66526C5.61875 5.77776 5.28125 5.89026 4.94375 6.00276C3.05 6.73401 2 7.74651 2 8.85276C2 9.97776 3.05 10.9903 4.94375 11.7028C5.28125 11.834 5.61875 11.9465 5.99375 12.0403C5.9 12.4153 5.825 12.7715 5.76875 13.1278C5.45 15.134 5.80625 16.559 6.7625 17.1028C7.04375 17.2715 7.38125 17.3465 7.7375 17.3465C8.825 17.384 10.175 16.5965 11.5438 15.284ZM10.4938 12.7528C10.8313 12.7715 11.1875 12.7715 11.5438 12.7715C11.9 12.7715 12.2563 12.7715 12.5938 12.7528C12.2563 13.2028 11.9 13.6153 11.5438 14.009C11.1875 13.6153 10.8313 13.2028 10.4938 12.7528ZM8.16875 10.8215C8.35625 11.1403 8.525 11.4403 8.73125 11.7403C8.15 11.6653 7.60625 11.5715 7.08125 11.459C7.25 10.9528 7.4375 10.4278 7.6625 9.90276C7.8125 10.2028 7.98125 10.5215 8.16875 10.8215ZM7.08125 6.30276C7.60625 6.19026 8.15 6.09651 8.73125 6.02151C8.54375 6.32151 8.35625 6.62151 8.16875 6.94026C7.98125 7.25901 7.8125 7.55901 7.6625 7.87776C7.41875 7.33401 7.23125 6.80901 7.08125 6.30276ZM8.1125 8.87151C8.35625 8.36526 8.61875 7.85901 8.91875 7.35276C9.2 6.86526 9.51875 6.37776 9.8375 5.89026C10.4 5.85276 10.9625 5.83401 11.5438 5.83401C12.1438 5.83401 12.7063 5.85276 13.25 5.89026C13.5875 6.37776 13.8875 6.86526 14.1688 7.35276C14.4688 7.85901 14.7313 8.36526 14.975 8.87151C14.7313 9.37776 14.4688 9.88401 14.1688 10.3903C13.8875 10.8778 13.5688 11.3653 13.25 11.8528C12.6875 11.8903 12.125 11.909 11.5438 11.909C10.9438 11.909 10.3813 11.8903 9.8375 11.8528C9.5 11.3653 9.2 10.8778 8.91875 10.3903C8.61875 9.88401 8.35625 9.37776 8.1125 8.87151ZM15.4438 7.85901L14.9375 6.92151C14.75 6.60276 14.5813 6.30276 14.375 6.00276C14.9563 6.07776 15.5 6.17151 16.025 6.28401C15.8563 6.80901 15.6688 7.33401 15.4438 7.85901ZM15.4438 9.88401C15.6688 10.409 15.8563 10.934 16.025 11.4403C15.5 11.5528 14.9563 11.6465 14.375 11.7215C14.5625 11.4215 14.75 11.1215 14.9375 10.8028C15.1063 10.5215 15.275 10.2028 15.4438 9.88401ZM15.875 16.3903C15.725 16.484 15.5375 16.5215 15.3313 16.5215C14.4125 16.5215 13.2688 15.7715 12.1438 14.6465C12.6875 14.0653 13.2125 13.409 13.7375 12.6778C14.6188 12.6028 15.4625 12.4715 16.25 12.284C16.3438 12.6215 16.4 12.959 16.4563 13.2965C16.7188 14.8903 16.5125 16.034 15.875 16.3903ZM16.85 6.50901C18.95 7.10901 20.2063 8.02776 20.2063 8.87151C20.2063 9.60276 19.3438 10.334 17.825 10.9153C17.525 11.0278 17.1875 11.1403 16.85 11.234C16.6063 10.4653 16.3063 9.67776 15.9313 8.87151C16.3063 8.06526 16.625 7.27776 16.85 6.50901ZM15.35 1.22151C15.5563 1.22151 15.725 1.25901 15.8938 1.35276C16.5125 1.70901 16.7375 2.83401 16.475 4.44651C16.4188 4.76526 16.3438 5.10276 16.2688 5.45901C15.4813 5.29026 14.6375 5.15901 13.7563 5.06526C13.25 4.33401 12.7063 3.67776 12.1625 3.09651C13.2875 1.99026 14.4313 1.22151 15.35 1.22151ZM12.5938 4.99026C12.2563 4.97151 11.9 4.97151 11.5438 4.97151C11.1875 4.97151 10.8313 4.97151 10.4938 4.99026C10.8313 4.54026 11.1875 4.12776 11.5438 3.73401C11.9 4.12776 12.2563 4.55901 12.5938 4.99026ZM7.2125 1.35276C7.3625 1.25901 7.55 1.22151 7.75625 1.22151C8.675 1.22151 9.81875 1.97151 10.9438 3.09651C10.4 3.67776 9.875 4.33401 9.35 5.06526C8.46875 5.14026 7.625 5.27151 6.8375 5.45901C6.74375 5.12151 6.6875 4.78401 6.63125 4.44651C6.36875 2.85276 6.575 1.72776 7.2125 1.35276ZM6.2375 11.234C4.1375 10.634 2.88125 9.71526 2.88125 8.87151C2.88125 8.14026 3.74375 7.40901 5.2625 6.82776C5.5625 6.71526 5.9 6.60276 6.2375 6.50901C6.48125 7.27776 6.78125 8.06526 7.15625 8.87151C6.78125 9.67776 6.4625 10.484 6.2375 11.234ZM6.63125 13.2965C6.6875 12.9778 6.7625 12.6403 6.8375 12.284C7.625 12.4528 8.46875 12.584 9.35 12.6778C9.85625 13.409 10.4 14.0653 10.9438 14.6465C9.81875 15.7528 8.675 16.5215 7.75625 16.5215C7.55 16.5215 7.38125 16.484 7.2125 16.3903C6.575 16.034 6.36875 14.8903 6.63125 13.2965ZM5.84375 21.0215C6.25625 20.5153 6.275 19.9528 6.05 19.3903C5.825 18.8278 5.35625 18.5653 4.775 18.5465C4.08125 18.5278 3.36875 18.5465 2.675 18.5465H2.54375V23.4028H3.10625V21.5653H3.9875C4.1 21.5653 4.19375 21.6028 4.25 21.6965L5.375 23.4403C5.39375 23.4778 5.45 23.534 5.4875 23.534H6.21875C5.76875 22.8403 5.3375 22.184 4.8875 21.509C5.28125 21.4528 5.61875 21.3215 5.84375 21.0215ZM3.10625 20.984V19.1278H3.3125C3.74375 19.1278 4.19375 19.109 4.625 19.1465C5.13125 19.1653 5.4875 19.559 5.4875 20.0653C5.4875 20.5715 5.075 20.9653 4.56875 20.984C4.11875 21.0028 3.66875 20.984 3.10625 20.984ZM10.3625 21.2278C10.0625 19.9153 8.8625 19.5778 7.94375 19.9903C7.23125 20.309 6.9125 20.9278 6.89375 21.6965C6.875 22.2778 7.04375 22.8028 7.49375 23.1965C8 23.6465 8.61875 23.7028 9.25625 23.5903C9.6125 23.5153 9.93125 23.3465 10.175 23.084C10.0813 22.9528 9.9875 22.8215 9.89375 22.709C9.36875 23.159 8.7875 23.309 8.15 23.009C7.7375 22.8028 7.53125 22.2965 7.49375 21.9215H10.4V21.6778C10.4188 21.509 10.4 21.359 10.3625 21.2278ZM7.53125 21.5278C7.475 20.9653 8.0375 20.3653 8.65625 20.3653C9.36875 20.3465 9.81875 20.7778 9.8375 21.5278H7.53125ZM13.2875 19.8965C13.0063 19.8403 12.7063 19.8215 12.425 19.8403C11.975 19.8778 11.5813 20.084 11.2625 20.4215C11.3563 20.5528 11.4313 20.684 11.5438 20.834C11.5813 20.7965 11.6188 20.759 11.6563 20.7403C11.9563 20.459 12.3125 20.309 12.7438 20.3465C13.0813 20.3653 13.4 20.4778 13.4938 20.8153C13.5688 21.0778 13.55 21.359 13.5688 21.6403C13.5125 21.6403 13.4938 21.6215 13.475 21.6028C13.025 21.2278 12.5188 21.1528 11.975 21.284C11.4688 21.4153 11.15 21.809 11.1125 22.3153C11.075 22.8965 11.3375 23.3278 11.8438 23.534C12.1625 23.6653 12.5188 23.6653 12.8563 23.5903C13.1188 23.534 13.2313 23.384 13.6063 23.1778V23.4215H14.1313C14.1313 22.6715 14.15 21.7528 14.1313 20.8903C14.1313 20.3465 13.8125 20.009 13.2875 19.8965ZM13.55 22.259C13.5313 22.3153 13.55 22.3715 13.55 22.4278C13.55 22.8215 13.4563 22.9528 13.0813 23.1028C12.8188 23.1965 12.5375 23.234 12.2563 23.1403C11.9375 23.0465 11.7125 22.7653 11.7125 22.4465C11.6938 22.1278 11.9 21.809 12.2188 21.7153C12.65 21.5653 13.0438 21.659 13.4 21.9215C13.5125 22.0153 13.5875 22.109 13.55 22.259ZM16.475 20.4028C16.9625 20.2528 17.4125 20.3465 17.75 20.759L17.8063 20.7965C17.9375 20.684 18.05 20.5715 18.2 20.4403C18.1438 20.384 18.125 20.3465 18.0875 20.2903C17.5438 19.709 16.475 19.634 15.8188 20.1028C14.9 20.7778 14.9188 22.0903 15.3688 22.784C15.8 23.4403 16.4188 23.6653 17.15 23.5715C17.5813 23.5153 17.9375 23.309 18.2188 22.9528C18.0875 22.8403 17.9563 22.7278 17.825 22.5965C17.7875 22.634 17.7688 22.6528 17.75 22.6903C17.2438 23.2528 16.4 23.1965 15.95 22.5965C15.6875 22.2403 15.6313 21.8278 15.7063 21.4153C15.7438 20.9465 15.9875 20.5715 16.475 20.4028ZM20.375 22.9528C20.3375 22.9715 20.3188 22.9903 20.3188 22.9903C20.1688 23.1028 20.0188 23.1215 19.85 23.0653C19.6813 22.9903 19.6625 22.8403 19.6438 22.6903V20.5528C19.6438 20.5153 19.6438 20.5903 19.6625 20.4028H20.375V19.8403H19.625V18.9028H19.0625V19.9153H18.575C18.5375 19.9153 18.4813 19.9528 18.4813 19.9903C18.4625 20.1215 18.4813 20.2153 18.4813 20.4028H19.0813V22.8028C19.0813 23.1028 19.1563 23.3653 19.4188 23.5153C19.7 23.684 20.2438 23.6465 20.4875 23.4403C20.525 23.4215 20.5438 23.3465 20.5438 23.3278C20.4875 23.2153 20.4313 23.084 20.375 22.9528Z" fill="#61DAFB"/>
</g>
<defs>
<clipPath id="clip0">
<rect y="0.359009" width="23.0875" height="23.2819" fill="white"/>
</clipPath>
</defs>
</svg>
