<svg width="25" height="24" viewBox="0 0 25 24" fill="none" xmlns="http://www.w3.org/2000/svg">
<g clip-path="url(#clip0)">
<path fill-rule="evenodd" clip-rule="evenodd" d="M0.31604 10.5292C0.31604 10.6611 0.354853 10.7481 0.376603 10.8326C0.518353 11.3826 0.82304 11.8545 1.18454 12.285C1.69941 12.8985 2.32998 13.3924 2.97591 13.8568C3.53616 14.2596 4.10785 14.6533 4.67035 15.0531C4.76691 15.1217 4.85823 15.2006 4.96304 15.2848C4.87285 15.3336 4.79785 15.3765 4.71985 15.4161C3.97754 15.7926 3.26335 16.2146 2.60504 16.7259C2.20829 17.0342 1.82466 17.3617 1.55373 17.7898C1.11779 18.4783 0.963478 19.2118 1.28842 19.995C1.38329 20.2237 1.52804 20.4214 1.73223 20.5674C1.79841 20.6147 1.87266 20.6616 1.9501 20.6799C2.14848 20.7266 2.3506 20.7572 2.55141 20.7941L3.1201 20.7938C3.74898 20.7377 4.32141 20.5222 4.83873 20.1652C5.64723 19.6073 6.19191 18.8591 6.4261 17.8989C6.59635 17.2011 6.60329 16.5024 6.40266 15.8077C6.3841 15.7432 6.36066 15.6801 6.33629 15.6176C6.31191 15.5552 6.28323 15.4944 6.24948 15.4166L7.53873 14.6752L7.55804 14.6918C7.5346 14.7684 7.50966 14.8449 7.48848 14.9224C7.33529 15.4819 7.23348 16.0511 7.27004 16.6318C7.30904 17.2506 7.48173 17.8298 7.84398 18.3467C8.13685 18.7648 8.83473 18.7804 9.14598 18.3608C9.25641 18.2117 9.36348 18.0559 9.44391 17.8896C9.6541 17.4555 9.84873 17.0138 10.0495 16.575L10.0846 16.4948C10.0702 16.7025 10.0533 16.8849 10.0456 17.0676C10.0336 17.3527 10.0503 17.6363 10.1478 17.9076C10.2312 18.1397 10.3732 18.3131 10.639 18.3437C10.8209 18.3645 10.9659 18.2812 11.0995 18.1757C11.3084 18.0109 11.4781 17.8073 11.6041 17.5759C11.9605 16.9213 12.3265 16.2707 12.6496 15.5996C12.9991 14.8738 13.3047 14.1268 13.6293 13.3886L13.6829 13.2577C13.7596 13.5591 13.813 13.8542 13.9115 14.1336C14.0259 14.4577 14.1674 14.7742 14.3215 15.0819C14.3945 15.2272 14.386 15.3216 14.285 15.4434C13.862 15.9534 13.4463 16.4696 13.0302 16.9852C12.9382 17.0991 12.8465 17.2149 12.7698 17.3392C12.7235 17.4148 12.6927 17.5069 12.6798 17.595C12.6549 17.7634 12.7589 17.9257 12.9391 17.9646C13.1037 18 13.279 18.0131 13.4469 18.0007C14.0275 17.958 14.5548 17.7542 15.0209 17.4088C15.6249 16.9614 15.8187 16.3509 15.6725 15.6274C15.6329 15.4311 15.563 15.2402 15.4949 15.051C15.4644 14.9657 15.4623 14.9059 15.518 14.8264C16.0008 14.1369 16.4133 13.4055 16.7969 12.6572C16.8121 12.6277 16.8277 12.5983 16.8543 12.5668C16.9786 13.2137 17.1657 13.8371 17.501 14.4028C17.33 14.5676 17.1607 14.7171 17.0075 14.8817C16.6702 15.2443 16.3777 15.6381 16.225 16.1182C16.1594 16.3252 16.109 16.5356 16.1382 16.7567C16.1836 17.1 16.4649 17.3231 16.8025 17.2449C17.5252 17.0777 18.149 16.7372 18.6048 16.134C18.9115 15.7279 18.9395 15.2749 18.811 14.8003C18.7758 14.6713 18.734 14.5444 18.689 14.3964C18.8673 14.3411 19.0411 14.2748 19.2209 14.2337C20.1545 14.0207 21.0779 14.0578 21.9775 14.3949C22.5027 14.5918 22.927 14.9213 23.1787 15.4395C23.486 16.0731 23.3161 16.6742 22.7189 17.0747C22.6632 17.112 22.5995 17.1414 22.5534 17.1881C22.525 17.2168 22.508 17.2742 22.5149 17.3137C22.5189 17.3368 22.5798 17.3657 22.6149 17.3653C22.8112 17.3638 22.9704 17.2609 23.1232 17.1551C23.506 16.8902 23.7854 16.5338 23.8456 16.0644L23.8574 16.0292L23.843 15.7236C23.8372 15.7059 23.8473 15.6885 23.846 15.6752C23.7646 14.9917 23.3995 14.4617 22.8685 14.0462C22.2535 13.5653 21.5274 13.3673 20.7593 13.3359C20.1335 13.3104 19.5183 13.4034 18.9284 13.6178C18.7602 13.6787 18.5935 13.7509 18.4244 13.8189C18.4017 13.7779 18.3774 13.7385 18.3573 13.6978C18.1837 13.3423 17.9733 13.0026 17.9268 12.5949C17.8938 12.3054 17.8533 12.0163 17.9221 11.73C17.9883 11.4546 18.0745 11.1838 18.1557 10.9121C18.1975 10.7723 18.1681 10.6939 18.0346 10.6309C17.9881 10.6089 17.9375 10.5898 17.8872 10.5825C17.5591 10.5349 17.2355 10.5621 16.9177 10.6545C16.8052 10.6873 16.7234 10.7503 16.6985 10.8748C16.6842 10.9462 16.6552 11.0147 16.6349 11.0852C16.5519 11.3783 16.493 11.6769 16.3587 11.9561C16.0224 12.6564 15.6384 13.3303 15.2454 13.9993C15.2028 14.0715 15.158 14.1424 15.1044 14.2299C14.9664 13.9412 14.8192 13.6821 14.7745 13.3783C14.7241 13.0348 14.6844 12.6919 14.7699 12.351C14.8334 12.0968 14.9165 11.8472 14.993 11.5963C15.0292 11.4771 15.0125 11.4144 14.9045 11.3516C14.8499 11.3199 14.7882 11.2918 14.7267 11.2826C14.3864 11.2322 14.0512 11.2586 13.7229 11.3647C13.621 11.3977 13.5676 11.4636 13.5365 11.5686C13.445 11.8783 13.367 12.1956 13.2385 12.4901C12.7184 13.6826 12.1833 14.8689 11.6487 16.0551C11.5372 16.3027 11.4065 16.5418 11.2807 16.7829C11.2488 16.8441 11.2023 16.8979 11.1625 16.9552C11.1307 16.9176 11.1183 16.8917 11.1185 16.8658C11.1194 16.7134 11.1012 16.5564 11.1303 16.4091C11.2182 15.9632 11.3195 15.5197 11.4262 15.078C11.5143 14.7131 11.6169 14.3516 11.7145 13.9892C11.7474 13.8679 11.7479 13.7544 11.6607 13.6524C11.5143 13.4816 11.2083 13.4441 11.0268 13.5758L10.9465 13.6211L10.9621 13.4918C11.0004 13.2144 11.008 12.9381 10.9319 12.6649C10.837 12.3244 10.594 12.1284 10.2408 12.1393C10.0762 12.1444 9.90329 12.1725 9.75085 12.2325C9.10979 12.4837 8.61685 12.9287 8.19723 13.464C8.15916 13.5126 8.10891 13.5568 8.05529 13.5866C7.51285 13.8874 6.96873 14.1844 6.42479 14.4825L5.81935 14.8142C5.65698 14.6593 5.50941 14.4986 5.34198 14.3623C4.83066 13.9453 4.3111 13.5386 3.79623 13.1263C3.33985 12.7609 2.89773 12.3802 2.55948 11.8963C2.30785 11.5363 2.14566 11.1424 2.1301 10.6972C2.11041 10.1301 2.27129 9.61181 2.56004 9.12937C2.92941 8.51212 3.43323 8.01675 3.9871 7.56806C4.57304 7.09369 5.20679 6.69094 5.8636 6.32325C6.78254 5.80894 7.72773 5.35369 8.74116 5.05313C9.78029 4.74488 10.8346 4.56844 11.9221 4.69144C12.3496 4.73981 12.7647 4.83769 13.1459 5.04675C13.4379 5.20669 13.6773 5.41613 13.7887 5.7435C13.8985 6.06562 13.8952 6.39206 13.819 6.71925C13.6644 7.38187 13.3015 7.92806 12.845 8.41613C12.0961 9.21619 11.1826 9.76088 10.1542 10.1207C9.56073 10.3283 8.95023 10.4586 8.32323 10.5113C7.81154 10.5542 7.31054 10.5088 6.82604 10.3309C6.50523 10.2129 6.22585 10.0326 6.00123 9.77081C5.9611 9.72394 5.90973 9.67313 5.83491 9.717C5.7616 9.76013 5.74866 9.82988 5.77323 9.90056C5.81429 10.0179 5.85216 10.1402 5.9161 10.2452C6.07679 10.5086 6.31116 10.6997 6.56916 10.8636C7.06473 11.1788 7.6186 11.2847 8.19291 11.3092C9.06441 11.3469 9.91473 11.2168 10.753 10.983C11.9499 10.6493 12.9905 10.0598 13.825 9.12975C14.5199 8.35538 15.0162 7.48144 15.1225 6.42619C15.1745 5.91112 15.1192 5.40656 14.878 4.93669C14.6165 4.42763 14.2006 4.04906 13.7034 3.78825C12.9792 3.40856 12.1977 3.1875 11.3911 3.1875H10.583C9.6061 3.1875 8.66166 3.46744 7.74366 3.80138C7.04879 4.05431 6.36741 4.35281 5.70591 4.68319C4.26535 5.403 2.92379 6.27094 1.82185 7.46438C1.27285 8.05894 0.80804 8.715 0.540665 9.4875C0.462478 9.71362 0.388228 9.95606 0.332353 10.1899L0.31604 10.5292ZM5.55216 16.9423C5.48973 17.7784 5.11079 18.4562 4.49148 19.0052C4.1431 19.3138 3.74354 19.5336 3.27816 19.6108C3.10941 19.6388 2.93673 19.6455 2.77304 19.5756C2.5396 19.4758 2.48729 19.2686 2.48279 19.0479C2.47585 18.6962 2.59904 18.3782 2.76798 18.0756C2.98848 17.6811 3.31173 17.3803 3.65691 17.0994C4.20066 16.6567 4.79054 16.2821 5.39466 15.9285L5.44023 15.9097C5.5336 16.2547 5.57804 16.5954 5.55216 16.9423ZM10.2693 13.3088C10.2252 13.5758 10.1701 13.8429 10.0921 14.1017C9.82248 14.9974 9.47616 15.8653 9.10173 16.7216C9.03254 16.8801 8.93185 17.0246 8.84429 17.1748C8.83079 17.1981 8.81073 17.2181 8.79123 17.2374C8.68285 17.3445 8.5801 17.3389 8.52535 17.1988C8.4616 17.0361 8.42241 16.8619 8.38866 16.6896C8.36598 16.5739 8.37141 16.4524 8.36429 16.3339C8.3716 15.4913 8.62866 14.7255 9.06479 14.0126C9.2446 13.7186 9.44035 13.4385 9.73941 13.2525C9.83129 13.1953 9.93441 13.1494 10.0385 13.1201C10.1979 13.0753 10.2957 13.149 10.2693 13.3088ZM13.4875 17.409L14.6442 16.0584C14.6924 16.56 13.8399 17.5612 13.4875 17.409ZM17.1819 16.5002C17.1001 16.5471 17.011 16.5808 16.9272 16.6241C16.8505 16.6639 16.8252 16.6237 16.823 16.5577C16.8215 16.5129 16.828 16.4661 16.8404 16.4226C16.9966 15.8717 17.284 15.4014 17.7117 15.0189L17.7417 15.0036C17.9452 15.5726 17.71 16.1976 17.1819 16.5002Z" fill="#CB6699"/>
</g>
<defs>
<clipPath id="clip0">
<rect x="0.0874939" width="24" height="24" fill="white"/>
</clipPath>
</defs>
</svg>
